# xmcd
#
# Track frame offsets:
#	150
#	18082
#	44746
#	62118
#	80052
#	103520
#	126368
#	145519
#	157155
#	171833
#	188495
#	204261
#	228818
#	251221
#	267345
#	283271
#	308738
#
# Disc length: 4376 seconds
#
# Revision: 2
# Processed by: cddbd v1.5.2PL0 Copyright (c) Steve Scherf et al.
# Submitted via: EasyCDDAExtractor 10.0.3.1
#
DISCID=f1111611
DTITLE=צביקה פיק - האוסף המשולש 1
DYEAR=2009
DGENRE=Ambient
TTITLE0=דיוה
TTITLE1=מרי לו
TTITLE2=אין לי מה לתת לך
TTITLE3=שיר הפרחה
TTITLE4=סוף
TTITLE5=עוד יום
TTITLE6=דרמה
TTITLE7=אין מדינה לאהבה
TTITLE8=הסבון בכה מאד
TTITLE9=סימנים
TTITLE10=שושנת פלאים
TTITLE11=מסיבת יום שישי
TTITLE12=החבר הכי טוב בעולם שלי
TTITLE13=רינה טיל
TTITLE14=אני הולך לאן שאן
TTITLE15=הישארי איתי הלילה
TTITLE16=מעלה מעלה
EXTD=
EXTT0=
EXTT1=
EXTT2=
EXTT3=
EXTT4=
EXTT5=
EXTT6=
EXTT7=
EXTT8=
EXTT9=
EXTT10=
EXTT11=
EXTT12=
EXTT13=
EXTT14=
EXTT15=
EXTT16=
PLAYORDER=
